<svg width="41" height="55" viewBox="0 0 41 55" fill="none" xmlns="http://www.w3.org/2000/svg">
<path d="M18.3932 53.8903C2.87961 31.2631 0 28.9408 0 20.625C0 9.23409 9.17813 0 20.5 0C31.8219 0 41 9.23409 41 20.625C41 28.9408 38.1204 31.2631 22.6068 53.8903C21.5887 55.37 19.4112 55.3699 18.3932 53.8903ZM20.5 29.2188C25.2175 29.2188 29.0417 25.3712 29.0417 20.625C29.0417 15.8788 25.2175 12.0312 20.5 12.0312C15.7825 12.0312 11.9583 15.8788 11.9583 20.625C11.9583 25.3712 15.7825 29.2188 20.5 29.2188Z" fill="#EF4040"/>
</svg>
